<?xml version="1.0" encoding="UTF-8" standalone="no"?>
<svg
   xmlns:dc="http://purl.org/dc/elements/1.1/"
   xmlns:cc="http://creativecommons.org/ns#"
   xmlns:rdf="http://www.w3.org/1999/02/22-rdf-syntax-ns#"
   xmlns:svg="http://www.w3.org/2000/svg"
   xmlns="http://www.w3.org/2000/svg"
   xmlns:sodipodi="http://sodipodi.sourceforge.net/DTD/sodipodi-0.dtd"
   xmlns:inkscape="http://www.inkscape.org/namespaces/inkscape"
   version="1.1"
   id="Capa_1"
   x="0px"
   y="0px"
   viewBox="0 0 511.999 511.999"
   style="enable-background:new 0 0 511.999 511.999;"
   xml:space="preserve"
   sodipodi:docname="chat.svg"
   inkscape:version="1.0.2-2 (e86c870879, 2021-01-15)"><metadata
   id="metadata170"><rdf:RDF><cc:Work
       rdf:about=""><dc:format>image/svg+xml</dc:format><dc:type
         rdf:resource="http://purl.org/dc/dcmitype/StillImage" /></cc:Work></rdf:RDF></metadata><defs
   id="defs168" /><sodipodi:namedview
   pagecolor="#ffffff"
   bordercolor="#666666"
   borderopacity="1"
   objecttolerance="10"
   gridtolerance="10"
   guidetolerance="10"
   inkscape:pageopacity="0"
   inkscape:pageshadow="2"
   inkscape:window-width="1920"
   inkscape:window-height="997"
   id="namedview166"
   showgrid="false"
   inkscape:zoom="1.6484407"
   inkscape:cx="255.9995"
   inkscape:cy="255.9995"
   inkscape:window-x="-9"
   inkscape:window-y="-9"
   inkscape:window-maximized="1"
   inkscape:current-layer="Capa_1" />
<g
   id="g115"
   fill="#27263D">
	<g
   id="g113">
		<path
   d="M467,75.993h-45v-15c0-24.813-20.187-45-45-45H45c-24.813,0-45,20.187-45,45v240c0,24.813,20.187,45,45,45h45v75    c0,13.384,16.222,19.992,25.606,10.606l25.607-25.606h169.574l85.606,85.606c9.389,9.393,25.606,2.8,25.606-10.606v-75h45    c24.813,0,45-20.187,45-45v-240C512,96.18,491.813,75.993,467,75.993z M120,384.78v-53.787c0-8.284-6.716-15-15-15H45    c-8.271,0-15-6.729-15-15v-240c0-8.271,6.729-15,15-15h332c8.271,0,15,6.729,15,15v240c0,8.271-6.729,15-15,15H195    c-3.979,0-7.793,1.581-10.606,4.394L120,384.78z M482,360.993c0,8.271-6.729,15-15,15h-60c-8.284,0-15,6.716-15,15v53.787    l-64.394-64.393c-2.813-2.813-6.628-4.394-10.606-4.394H171.213l30-30H377c24.813,0,45-20.187,45-45v-195h45    c8.271,0,15,6.729,15,15V360.993z"
   id="path111" />
	</g>
</g>
<g
   id="g121">
	<g
   id="g119">
		<path
   d="M287,105.993H75c-8.284,0-15,6.716-15,15s6.716,15,15,15h212c8.284,0,15-6.716,15-15S295.284,105.993,287,105.993z"
   id="path117"
   fill="#27263D" />
	</g>
</g>
<g
   id="g127"
   fill="#27263D">
	<g
   id="g125">
		<path
   d="M347,165.993H75c-8.284,0-15,6.716-15,15s6.716,15,15,15h272c8.284,0,15-6.716,15-15S355.284,165.993,347,165.993z"
   id="path123" />
	</g>
</g>
<g
   id="g133"
   fill="#27263D">
	<g
   id="g131">
		<path
   d="M227,225.993H75c-8.284,0-15,6.716-15,15s6.716,15,15,15h152c8.284,0,15-6.716,15-15S235.284,225.993,227,225.993z"
   id="path129" />
	</g>
</g>
<g
   id="g135">
</g>
<g
   id="g137">
</g>
<g
   id="g139">
</g>
<g
   id="g141">
</g>
<g
   id="g143">
</g>
<g
   id="g145">
</g>
<g
   id="g147">
</g>
<g
   id="g149">
</g>
<g
   id="g151">
</g>
<g
   id="g153">
</g>
<g
   id="g155">
</g>
<g
   id="g157">
</g>
<g
   id="g159">
</g>
<g
   id="g161">
</g>
<g
   id="g163">
</g>
</svg>
