<?xml version="1.0" encoding="UTF-8" standalone="no"?>
<svg
   xmlns:dc="http://purl.org/dc/elements/1.1/"
   xmlns:cc="http://creativecommons.org/ns#"
   xmlns:rdf="http://www.w3.org/1999/02/22-rdf-syntax-ns#"
   xmlns:svg="http://www.w3.org/2000/svg"
   xmlns="http://www.w3.org/2000/svg"
   xmlns:sodipodi="http://sodipodi.sourceforge.net/DTD/sodipodi-0.dtd"
   xmlns:inkscape="http://www.inkscape.org/namespaces/inkscape"
   height="512pt"
   viewBox="0 0 512.016 512"
   width="512pt"
   version="1.1"
   id="svg38"
   sodipodi:docname="logout.svg"
   inkscape:version="1.0.2-2 (e86c870879, 2021-01-15)">
  <metadata
     id="metadata44">
    <rdf:RDF>
      <cc:Work
         rdf:about="">
        <dc:format>image/svg+xml</dc:format>
        <dc:type
           rdf:resource="http://purl.org/dc/dcmitype/StillImage" />
      </cc:Work>
    </rdf:RDF>
  </metadata>
  <defs
     id="defs42" />
  <sodipodi:namedview
     pagecolor="#ffffff"
     bordercolor="#666666"
     borderopacity="1"
     objecttolerance="10"
     gridtolerance="10"
     guidetolerance="10"
     inkscape:pageopacity="0"
     inkscape:pageshadow="2"
     inkscape:window-width="1920"
     inkscape:window-height="997"
     id="namedview40"
     showgrid="false"
     inkscape:zoom="0.61816406"
     inkscape:cx="341.99622"
     inkscape:cy="492.19446"
     inkscape:window-x="-9"
     inkscape:window-y="-9"
     inkscape:window-maximized="1"
     inkscape:current-layer="svg38" />
  <path
     d="M 492.9999,240.00781 H 290.33193 c -8.83203,0 -16,-7.16797 -16,-16 0,-8.83203 7.16797,-16 16,-16 H 492.9999 c 8.83203,0 16,7.16797 16,16 0,8.83203 -7.16797,16 -16,16 z m 0,0"
     id="path28"
     fill="#27263d" />
  <path
     d="m 412.9999,320.00781 c -4.09766,0 -8.19141,-1.55859 -11.3086,-4.6914 -6.25,-6.25391 -6.25,-16.38672 0,-22.63672 l 68.69532,-68.69141 -68.69532,-68.69531 c -6.25,-6.25 -6.25,-16.38281 0,-22.63281 6.25391,-6.25391 16.38672,-6.25391 22.63672,0 l 80,80 c 6.25,6.25 6.25,16.38281 0,22.63281 l -80,80 c -3.13672,3.15625 -7.23047,4.71484 -11.32812,4.71484 z m 0,0"
     id="path30"
     fill="#27263d" />
  <path
     d="m 208.16922,512.00781 c -4.56641,0 -8.89844,-0.64062 -13.22657,-1.98437 L 66.555863,467.25 C 49.087113,461.14844 37.501174,444.87109 37.501174,426.67578 V 42.675781 c 0,-23.53125 19.13672,-42.6679685 42.66797,-42.6679685 4.5625,0 8.894531,0.6406255 13.226562,1.9843755 L 221.77859,44.765625 c 17.47266,6.101563 29.05469,22.378906 29.05469,40.574219 V 469.33984 c 0,23.53125 -19.13281,42.66797 -42.66406,42.66797 z M 80.169144,32.007812 c -5.867188,0 -10.667969,4.800782 -10.667969,10.667969 V 426.67578 c 0,4.54297 3.050781,8.76563 7.402344,10.28125 l 127.785231,42.58203 c 0.91797,0.29688 2.11328,0.46875 3.48047,0.46875 5.86718,0 10.66406,-4.80078 10.66406,-10.66797 V 85.339844 c 0,-4.542969 -3.05078,-8.765625 -7.40235,-10.28125 L 83.645706,32.476562 c -0.917969,-0.296874 -2.113281,-0.46875 -3.476562,-0.46875 z m 0,0"
     id="path32"
     fill="#27263d" />
  <path
     d="m 362.83328,170.67578 c -8.83203,0 -16,-7.16797 -16,-16 V 58.675781 c 0,-14.699219 -11.96485,-26.667969 -26.66406,-26.667969 H 80.169144 c -8.832031,0 -16,-7.167968 -16,-16 0,-8.832031 7.167969,-15.9999995 16,-15.9999995 H 320.16922 c 32.36328,0 58.66406,26.3046875 58.66406,58.6679685 v 95.999999 c 0,8.83203 -7.16797,16 -16,16 z m 0,0"
     id="path34"
     fill="#27263d" />
  <path
     d="m 320.16922,448.00781 h -85.33594 c -8.83203,0 -16,-7.16797 -16,-16 0,-8.83203 7.16797,-16 16,-16 h 85.33594 c 14.69921,0 26.66406,-11.96875 26.66406,-26.66797 v -96 c 0,-8.83203 7.16797,-16 16,-16 8.83203,0 16,7.16797 16,16 v 96 c 0,32.36328 -26.30078,58.66797 -58.66406,58.66797 z m 0,0"
     id="path36"
     fill="#27263d" />
</svg>
